<svg width="26" height="24" viewBox="0 0 26 24" fill="none" xmlns="http://www.w3.org/2000/svg">
<path d="M2.51949 23.1094C2.02739 23.6133 1.18359 23.6133 0.71489 23.1094C0.234389 22.5938 0.234389 21.7969 0.71489 21.3047L11.8594 10.125C12.3516 9.63281 13.1953 9.63281 13.6641 10.125C14.1563 10.6406 14.1445 11.4492 13.6641 11.9414L2.51949 23.1094ZM2.10939 22.3008L9.33989 15.0586L8.75389 14.4961L1.52349 21.7383C1.31249 21.9375 1.26559 22.1719 1.45309 22.3828C1.66409 22.5586 1.88669 22.5234 2.10939 22.3008Z" fill="white"/>
<path opacity="0.6" d="M16.9688 23.2969C16.7578 23.2969 16.6055 23.1445 16.5703 22.9219C16.1953 19.793 16.043 19.7109 12.8555 19.1953C12.6094 19.1484 12.4571 19.0312 12.4571 18.7969C12.4571 18.5742 12.6094 18.4336 12.8086 18.3984C16.0196 17.7891 16.1953 17.8008 16.5703 14.6719C16.6055 14.4492 16.7578 14.2969 16.9688 14.2969C17.1914 14.2969 17.3438 14.4492 17.3672 14.6602C17.7774 17.8359 17.8828 17.9414 21.1289 18.3984C21.3281 18.4219 21.4805 18.5742 21.4805 18.7969C21.4805 19.0195 21.3281 19.1484 21.1289 19.1953C17.8828 19.8164 17.7891 19.8164 17.3672 22.9453C17.3438 23.1445 17.1914 23.2969 16.9688 23.2969ZM22.5352 13.0898C22.3711 13.0898 22.2774 12.9727 22.2422 12.8203C21.8438 10.5938 21.8321 10.4531 19.4766 10.0547C19.3242 10.0195 19.2071 9.92578 19.2071 9.76172C19.2071 9.59766 19.3242 9.49219 19.4766 9.46875C21.8321 9.05859 21.8438 8.91797 22.2422 6.69141C22.2774 6.53906 22.3711 6.43359 22.5352 6.43359C22.6992 6.43359 22.793 6.53906 22.8281 6.69141C23.2266 8.91797 23.2383 9.05859 25.5938 9.46875C25.7461 9.49219 25.8633 9.59766 25.8633 9.76172C25.8633 9.92578 25.7461 10.0195 25.5938 10.0547C23.2383 10.4531 23.2266 10.5938 22.8281 12.8203C22.793 12.9727 22.6992 13.0898 22.5352 13.0898ZM16.1133 5.58984C15.9727 5.58984 15.9024 5.50781 15.8789 5.37891C15.4805 3.50391 15.5039 3.43359 13.5352 3.03516C13.4063 3.01172 13.3125 2.92969 13.3125 2.80078C13.3125 2.66016 13.4063 2.57812 13.5352 2.55469C15.5039 2.15625 15.4805 2.08594 15.8789 0.222656C15.9024 0.09375 15.9727 0 16.1133 0C16.2539 0 16.3242 0.09375 16.3477 0.222656C16.7461 2.08594 16.7227 2.15625 18.6914 2.55469C18.8203 2.57812 18.9141 2.66016 18.9141 2.80078C18.9141 2.92969 18.8203 3.01172 18.6914 3.03516C16.7227 3.43359 16.7461 3.50391 16.3477 5.37891C16.3242 5.50781 16.2539 5.58984 16.1133 5.58984ZM6.4336 9.72656C6.2695 9.72656 6.1758 9.62109 6.1406 9.46875C5.7422 7.24219 5.7305 7.10156 3.375 6.69141C3.211 6.66797 3.1055 6.5625 3.1055 6.39844C3.1055 6.23438 3.211 6.14062 3.375 6.10547C5.7305 5.70703 5.7422 5.56641 6.1406 3.33984C6.1758 3.1875 6.2695 3.07031 6.4336 3.07031C6.5977 3.07031 6.6914 3.1875 6.7266 3.33984C7.125 5.56641 7.1367 5.70703 9.4922 6.10547C9.6445 6.14062 9.7617 6.23438 9.7617 6.39844C9.7617 6.5625 9.6445 6.66797 9.4922 6.69141C7.1367 7.10156 7.125 7.24219 6.7266 9.46875C6.6914 9.62109 6.5977 9.72656 6.4336 9.72656Z" fill="white"/>
</svg>
