<svg width="39" height="21" viewBox="0 0 39 21" fill="none" xmlns="http://www.w3.org/2000/svg">
<path d="M32.1562 20.3672C35.6953 20.3672 38.4609 17.7773 38.4609 14.5547C38.4609 12.0938 37.043 9.96094 34.7578 9C34.7812 3.77344 31.0195 0 26.2266 0C23.0508 0 20.7891 1.69922 19.3828 3.75C16.5 2.90625 13.3594 5.09766 13.3008 8.37891C10.6523 8.80078 9 11.168 9 14.0273C9 17.4727 12.0117 20.3672 16.0195 20.3672H32.1562ZM32.1562 18.4805H16.0195C13.0664 18.4805 10.8867 16.418 10.8867 14.0273C10.8867 11.6836 12.3047 9.82031 14.7891 9.82031C14.9531 9.82031 15.0117 9.73828 15.0117 9.58594C15.0117 5.97656 17.6133 4.91016 20.0156 5.69531C20.1562 5.74219 20.2383 5.70703 20.3086 5.57812C21.4453 3.55078 23.1914 1.88672 26.2266 1.88672C30.0703 1.88672 32.7305 4.93359 32.9297 8.41406C32.9648 8.95312 32.9297 9.58594 32.8828 10.1367C32.8711 10.2891 32.9297 10.3711 33.0703 10.4062C35.2031 10.875 36.5742 12.4336 36.5742 14.5547C36.5742 16.7344 34.6523 18.4805 32.1562 18.4805Z" fill="white"/>
<path opacity="0.6" d="M8.30566 0C10.4615 7.78413e-05 11.9965 1.16851 12.9512 2.57812C13.9263 2.28913 14.945 2.51803 15.7266 3.09961C15.2642 3.31336 14.8291 3.58654 14.4346 3.91309C13.858 3.68631 13.1785 3.69761 12.5215 3.91504C12.4263 3.94705 12.3709 3.92246 12.3232 3.83398C11.5516 2.44053 10.366 1.29695 8.30566 1.29688C5.69647 1.29688 3.89031 3.39098 3.75488 5.7832C3.73105 6.15374 3.75527 6.58919 3.78711 6.96777C3.79504 7.07251 3.75462 7.1292 3.65918 7.15332C2.2115 7.47566 1.28125 8.547 1.28125 10.0049C1.28141 11.503 2.58586 12.7031 4.28027 12.7031H8.10938C8.03862 13.1256 8.00146 13.5596 8 14H4.28027C1.8778 14 0.000157341 12.2199 0 10.0049C0 8.3134 0.962467 6.8471 2.51367 6.18652C2.49779 2.59389 5.05193 0 8.30566 0Z" fill="white"/>
</svg>
