<svg width="25" height="21" viewBox="0 0 25 21" fill="none" xmlns="http://www.w3.org/2000/svg">
<path d="M1.06505 7.04297C2.75255 6.5039 4.49865 6.22266 6.16271 6.22266C8.31896 6.22266 9.90103 6.57422 11.94 6.57422C14.0494 6.57422 15.3619 5.14453 15.3619 3.28125C15.3619 1.37109 13.8971 0 12.0924 0C10.7564 0 9.58459 0.84375 9.0924 1.95703C8.9049 2.34375 8.97521 2.78906 9.38537 3C9.76033 3.1875 10.2174 3.07031 10.4635 2.60156C10.7213 2.0039 11.3541 1.53516 12.0924 1.53516C13.065 1.53516 13.8267 2.21484 13.8267 3.28125C13.8267 4.34766 13.0885 5.05078 11.94 5.05078C9.99473 5.05078 8.38927 4.69922 6.16271 4.69922C4.25255 4.69922 2.31896 5.03906 0.596304 5.58984C0.104117 5.73047 -0.0833831 6.15234 0.0338039 6.55078C0.150991 6.96094 0.53771 7.19531 1.06505 7.04297ZM19.3931 12.5274C22.1236 12.5274 24.0572 10.793 24.0572 8.36719C24.0572 5.97656 22.2174 4.24219 19.9322 4.24219C17.8111 4.24219 16.2408 5.71875 15.9596 7.65234C15.8892 8.14453 16.1588 8.53125 16.5807 8.58984C17.0142 8.64844 17.3892 8.3789 17.483 7.82812C17.6822 6.59766 18.7017 5.76562 19.9322 5.76562C21.3619 5.76562 22.5221 6.83203 22.5221 8.36719C22.5221 9.92578 21.2916 11.0039 19.3931 11.0039C15.8189 11.0039 11.9635 8.96484 7.27599 8.96484C4.86193 8.96484 2.65881 9.35156 0.596304 10.0781C0.115835 10.2539 -0.0833831 10.6641 0.0338039 11.0625C0.150991 11.4727 0.549429 11.7188 1.06505 11.543C2.97521 10.8164 4.9674 10.5 7.27599 10.5C11.9517 10.5 15.4439 12.5274 19.3931 12.5274ZM11.9517 20.7891C13.7564 20.7891 15.151 19.4531 15.151 17.543C15.151 14.7774 12.3267 13.2305 7.12365 13.2305C4.94396 13.2305 2.58849 13.6524 0.596304 14.3321C0.115835 14.5078 -0.0833831 14.918 0.0338039 15.3164C0.150991 15.7266 0.549429 15.9727 1.06505 15.7969C2.92834 15.1289 5.01427 14.7656 7.12365 14.7656C11.3775 14.7656 13.6275 15.8321 13.6275 17.543C13.6275 18.6094 12.8775 19.2656 11.9517 19.2656C11.026 19.2656 10.4635 18.6445 10.2994 17.6602C10.2291 17.2266 9.91273 16.8633 9.40881 16.8985C8.88146 16.9336 8.67052 17.3789 8.74084 17.8594C8.95177 19.4883 10.1588 20.7891 11.9517 20.7891Z" fill="white"/>
</svg>
