<svg width="47" height="47" viewBox="0 0 47 47" fill="none" xmlns="http://www.w3.org/2000/svg">
<path d="M23.6783 33.3907L26.297 31.3592C31.4399 27.337 33.1199 25.7384 33.1199 22.4382C33.1199 19.4989 30.7049 17.1268 27.7649 17.1268C26.9031 17.1268 26.0963 17.3118 25.3444 17.6818C24.8741 17.9131 24.4254 18.2169 23.9981 18.5929C23.6657 18.8855 23.3463 19.2219 23.0399 19.602C22.7294 19.2247 22.4075 18.8905 22.0743 18.5994C21.6196 18.2023 21.1437 17.8854 20.6468 17.649C19.9153 17.3009 19.138 17.1268 18.315 17.1268C15.375 17.1268 12.96 19.4989 12.96 22.4382C12.96 25.7384 14.64 27.337 19.7828 31.3592L22.4016 33.3907C22.7769 33.6819 23.303 33.6819 23.6783 33.3907Z" fill="white"/>
<path fill-rule="evenodd" clip-rule="evenodd" d="M22.1185 0.52002C11.6918 0.52002 6.47833 0.52002 3.23916 3.75918C0 6.99835 0 12.2117 0 22.6384V24.4816C0 34.9083 0 40.1217 3.23916 43.3609C6.47833 46.6 11.6917 46.6 22.1184 46.6H23.9616C34.3883 46.6 39.6017 46.6 42.8408 43.3609C46.08 40.1217 46.08 34.9083 46.08 24.4816V22.6384C46.08 21.0316 46.08 19.5486 46.0682 18.1776C46.0031 10.6518 45.5809 6.49918 42.8409 3.75918C39.7451 0.66337 34.846 0.526364 25.3156 0.5203C24.9133 0.520044 24.5026 0.520022 24.0836 0.52002H22.1185ZM39.0385 23.8844L44.6927 19.2942C44.6975 20.339 44.6976 21.4517 44.6976 22.6384V24.4816C44.6976 29.7341 44.6947 33.5343 44.305 36.4324C43.9208 39.2907 43.1833 41.0634 41.8633 42.3834C40.5434 43.7033 38.7706 44.4408 35.9124 44.8251C33.0143 45.2147 29.214 45.2176 23.9616 45.2176H22.1184C16.866 45.2176 13.0657 45.2147 10.1677 44.8251C7.30937 44.4408 5.53659 43.7033 4.21667 42.3834C2.89675 41.0634 2.15925 39.2907 1.77497 36.4324C1.38534 33.5343 1.3824 29.7341 1.3824 24.4816V22.6384C1.3824 21.4523 1.38255 20.3402 1.38727 19.2958L7.04152 23.886C7.28763 26.293 8.17179 28.4171 9.79287 30.4227C11.3676 32.371 13.66 34.1982 16.1034 36.1091L16.1199 36.1219L18.7407 38.1551C21.2726 40.1193 24.8072 40.1193 27.3391 38.1551L29.9579 36.1236L29.9743 36.1108L29.9765 36.1091C32.4199 34.1982 34.7122 32.371 36.287 30.4227C37.9085 28.4166 38.7927 26.2921 39.0385 23.8844ZM18.315 12.49C20.0539 12.49 21.6303 12.918 23.0294 13.6653C24.4346 12.9149 26.0193 12.49 27.7649 12.49C33.1738 12.49 37.7279 16.8622 37.7279 22.4382C37.7279 25.1442 36.9492 27.4043 35.2119 29.5537C33.7544 31.3568 31.5957 33.0877 29.1248 35.0202L29.1105 35.0313L26.4918 37.0629C24.4586 38.6402 21.6213 38.6402 19.5881 37.0629L16.9693 35.0313L16.955 35.0202C14.4841 33.0877 12.3254 31.3568 10.868 29.5537C9.13067 27.4043 8.352 25.1441 8.352 22.4382C8.352 16.8622 12.9061 12.49 18.315 12.49Z" fill="white"/>
</svg>
