<svg width="349" height="349" viewBox="0 0 349 349" fill="none" xmlns="http://www.w3.org/2000/svg">
<g clip-path="url(#clip0_207_2390)">
<path d="M0 167.52C0 88.5503 0 49.0655 24.5327 24.5327C49.0655 0 88.5503 0 167.52 0H181.48C260.45 0 299.935 0 324.467 24.5327C349 49.0655 349 88.5503 349 167.52V181.48C349 260.45 349 299.935 324.467 324.467C299.935 349 260.45 349 181.48 349H167.52C88.5503 349 49.0655 349 24.5327 324.467C0 299.935 0 260.45 0 181.48V167.52Z" fill="#0077FF"/>
<path d="M181.48 0H167.52C88.5503 0 49.0655 0 24.5327 24.5327C3.07502 45.9904 0.385435 78.8869 0.0483118 139.638L174.5 275.71L348.952 139.638C348.615 78.8869 345.925 45.9904 324.467 24.5327C299.935 0 260.45 0 181.48 0Z" fill="#FF22A6"/>
<path fill-rule="evenodd" clip-rule="evenodd" d="M128.342 261.788C109.555 247.124 93.0324 233.905 81.9506 220.222C68.741 203.913 62.8203 186.762 62.8203 166.229C62.8203 123.917 97.4475 90.7402 138.574 90.7402C151.796 90.7402 163.782 93.9882 174.42 99.6585C185.105 93.9639 197.154 90.7402 210.427 90.7402C251.553 90.7402 286.18 123.917 286.18 166.229C286.18 186.762 280.26 203.913 267.05 220.222C255.968 233.905 239.446 247.124 220.658 261.788L200.747 277.204C185.287 289.172 163.714 289.172 148.254 277.204L128.342 261.788ZM192.022 130.136C185.665 133.258 179.825 138.115 174.5 144.707C168.917 137.937 162.852 132.997 156.304 129.887C150.742 127.246 144.832 125.925 138.574 125.925C116.22 125.925 97.8573 143.925 97.8573 166.229C97.8573 191.271 110.631 203.402 149.735 233.923L169.647 249.338C172.5 251.548 176.5 251.548 179.354 249.338L199.266 233.923C238.369 203.402 251.143 191.271 251.143 166.229C251.143 143.925 232.781 125.925 210.427 125.925C203.874 125.925 197.739 127.329 192.022 130.136Z" fill="white"/>
</g>
<defs>
<clipPath id="clip0_207_2390">
<rect width="349" height="349" fill="white"/>
</clipPath>
</defs>
</svg>
