<svg width="585" height="209" viewBox="0 0 585 209" fill="none" xmlns="http://www.w3.org/2000/svg">
<g filter="url(#filter0_b_384_2615)">
<rect x="1" y="1" width="390.255" height="113.309" rx="56.6546" fill="white" fill-opacity="0.12"/>
<rect x="0.529828" y="0.529828" width="391.195" height="114.25" rx="57.1248" stroke="white" stroke-opacity="0.22" stroke-width="0.940343"/>
<g filter="url(#filter1_dd_384_2615)">
<path fill-rule="evenodd" clip-rule="evenodd" d="M91.7495 52.9789C90.7863 55.0847 89.5308 57.2587 87.896 58.893C86.2613 60.5273 84.0867 61.7825 81.9804 62.7455C84.0867 63.7085 86.2613 64.9636 87.896 66.5979C89.5301 68.2315 90.7857 70.4019 91.7495 72.5042C92.7133 70.4019 93.969 68.2315 95.603 66.5979C97.237 64.9643 99.408 63.709 101.511 62.7455C99.408 61.7819 97.237 60.5266 95.603 58.893C93.9682 57.2587 92.7128 55.0847 91.7495 52.9789ZM89.5291 46.9752C88.4139 50.3814 86.8742 53.925 84.9005 55.8982C82.9267 57.8714 79.3821 59.4107 75.9749 60.5257C75.6276 60.6393 75.2818 60.7485 74.9391 60.8534C74.1738 61.0876 73.4246 61.2998 72.7117 61.4902C72.5065 61.545 72.3043 61.5981 72.1055 61.6493C71.159 61.8931 71.159 63.5978 72.1055 63.8417C72.3043 63.8929 72.5065 63.9459 72.7117 64.0007C73.4246 64.1911 74.1738 64.4034 74.9391 64.6376C75.2818 64.7424 75.6276 64.8516 75.9749 64.9653C79.3821 66.0802 82.9267 67.6195 84.9005 69.5927C86.8738 71.5656 88.4133 75.099 89.5285 78.494C89.6417 78.8385 89.7505 79.1816 89.8549 79.5215C90.0897 80.2857 90.3025 81.0338 90.4934 81.7455C90.5486 81.9514 90.602 82.1542 90.6535 82.3535C90.8981 83.2989 92.601 83.2989 92.8455 82.3535C92.8971 82.1542 92.9504 81.9514 93.0056 81.7455C93.1965 81.0338 93.4093 80.2857 93.6441 79.5215C93.7486 79.1816 93.8574 78.8385 93.9705 78.494C95.0857 75.099 96.6252 71.5656 98.5986 69.5927C100.572 67.6199 104.106 66.0808 107.502 64.9659C107.847 64.8528 108.19 64.744 108.53 64.6396C109.294 64.4048 110.043 64.1921 110.755 64.0013C110.96 63.9461 111.163 63.8927 111.363 63.8412C112.308 63.5967 112.308 61.8942 111.363 61.6498C111.163 61.5982 110.96 61.5449 110.755 61.4897C110.043 61.2988 109.294 61.0861 108.53 60.8513C108.19 60.7469 107.847 60.6382 107.502 60.525C104.106 59.4101 100.572 57.8711 98.5986 55.8982C96.6248 53.925 95.0852 50.3814 93.9699 46.9752C93.8562 46.628 93.747 46.2822 93.6421 45.9397C93.4079 45.1746 93.1956 44.4256 93.0051 43.7129C92.9503 43.5077 92.8972 43.3055 92.846 43.1069C92.6021 42.1606 90.8969 42.1606 90.653 43.1069C90.6018 43.3055 90.5488 43.5077 90.4939 43.7129C90.3035 44.4256 90.0912 45.1746 89.8569 45.9397C89.7521 46.2822 89.6428 46.628 89.5291 46.9752Z" fill="white"/>
<path d="M72.4561 33.0051C72.1098 31.9664 70.6401 31.9664 70.2938 33.0051L68.9143 37.1424C68.4799 38.4453 67.4572 39.4677 66.1539 39.902L62.0156 41.2811C60.9766 41.6274 60.9766 43.0966 62.0156 43.4429L66.1437 44.8185C67.4527 45.2548 68.4783 46.2842 68.9095 47.5946L70.2923 51.7974C70.636 52.8418 72.1138 52.8418 72.4575 51.7974L73.837 47.6049C74.27 46.2887 75.3026 45.2563 76.6192 44.8234L80.8128 43.4443C81.8575 43.1007 81.8575 41.6233 80.8128 41.2797L76.6089 39.8972C75.2981 39.4662 74.2685 38.4408 73.8321 37.1321L72.4561 33.0051Z" fill="white"/>
</g>
<path d="M153.403 72.5084C150.048 72.5084 147.032 71.7289 144.354 70.1699C141.677 68.577 139.575 66.3741 138.05 63.5611C136.559 60.7482 135.814 57.5794 135.814 54.0547C135.814 50.53 136.559 47.3782 138.05 44.5991C139.575 41.7862 141.66 39.6002 144.303 38.0412C146.981 36.4483 149.997 35.6519 153.352 35.6519C156.979 35.6519 160.198 36.567 163.011 38.3971C165.858 40.1933 167.891 42.6334 169.111 45.7175L163.926 46.5309C162.977 44.633 161.571 43.1588 159.707 42.1081C157.877 41.0236 155.809 40.4814 153.505 40.4814C151.132 40.4814 149.014 41.0575 147.15 42.2098C145.32 43.3621 143.88 44.9719 142.829 47.0393C141.812 49.0727 141.304 51.4112 141.304 54.0547C141.304 56.7321 141.812 59.1045 142.829 61.1718C143.88 63.2053 145.337 64.7982 147.201 65.9505C149.065 67.1027 151.2 67.6789 153.606 67.6789C155.979 67.6789 158.08 67.1366 159.91 66.0521C161.774 64.9337 163.198 63.3747 164.18 61.3752L169.366 62.1886C168.078 65.3404 165.994 67.8484 163.113 69.7124C160.232 71.5764 156.995 72.5084 153.403 72.5084ZM188.023 62.4427C187.21 62.8155 186.244 63.1036 185.126 63.307C184.007 63.5103 182.906 63.612 181.821 63.612C178.67 63.612 176.246 62.7308 174.552 60.9685C172.857 59.2061 172.01 56.7152 172.01 53.4955V45.7175H176.992V53.4955C176.992 57.2574 178.805 59.1384 182.431 59.1384C184.634 59.1384 186.498 58.7486 188.023 57.9691V45.7175H193.005V72H188.023V62.4427ZM225.201 58.6808C225.201 59.3587 225.184 59.884 225.15 60.2568H203.443C203.714 62.5952 204.629 64.4593 206.188 65.8488C207.747 67.2383 209.73 67.9331 212.136 67.9331C213.797 67.9331 215.271 67.6111 216.559 66.9672C217.88 66.2894 218.88 65.4082 219.558 64.3237L224.235 65.0862C223.218 67.4586 221.575 69.2887 219.304 70.5766C217.067 71.8644 214.576 72.5084 211.831 72.5084C209.221 72.5084 206.883 71.9322 204.815 70.7799C202.748 69.5937 201.138 67.967 199.986 65.8996C198.834 63.8323 198.257 61.4938 198.257 58.8842C198.257 56.2407 198.834 53.8853 199.986 51.8179C201.138 49.7506 202.731 48.1407 204.765 46.9884C206.798 45.8023 209.12 45.2092 211.729 45.2092C214.305 45.2092 216.609 45.8023 218.643 46.9884C220.71 48.1407 222.32 49.7506 223.472 51.8179C224.625 53.8514 225.201 56.139 225.201 58.6808ZM211.729 49.6319C209.73 49.6319 208.001 50.225 206.544 51.4112C205.12 52.5974 204.171 54.1903 203.697 56.1898H219.761C219.321 54.2242 218.372 52.6482 216.914 51.462C215.491 50.242 213.763 49.6319 211.729 49.6319ZM206.442 41.5489C205.493 41.5489 204.714 41.2609 204.104 40.6847C203.494 40.0747 203.189 39.3121 203.189 38.3971C203.189 37.482 203.494 36.7364 204.104 36.1603C204.714 35.5502 205.493 35.2452 206.442 35.2452C207.323 35.2452 208.069 35.5502 208.679 36.1603C209.289 36.7364 209.594 37.482 209.594 38.3971C209.594 39.3121 209.289 40.0747 208.679 40.6847C208.069 41.2609 207.323 41.5489 206.442 41.5489ZM216.965 41.5489C216.016 41.5489 215.237 41.2609 214.627 40.6847C214.051 40.0747 213.763 39.3121 213.763 38.3971C213.763 37.482 214.051 36.7364 214.627 36.1603C215.237 35.5502 216.016 35.2452 216.965 35.2452C217.88 35.2452 218.643 35.5502 219.253 36.1603C219.863 36.7364 220.168 37.482 220.168 38.3971C220.168 39.3121 219.863 40.0747 219.253 40.6847C218.643 41.2609 217.88 41.5489 216.965 41.5489ZM240.487 72H235.505V50.2928H226.405V45.7175H249.587V50.2928H240.487V72ZM269.858 62.4427C269.045 62.8155 268.079 63.1036 266.96 63.307C265.842 63.5103 264.74 63.612 263.656 63.612C260.504 63.612 258.081 62.7308 256.386 60.9685C254.692 59.2061 253.844 56.7152 253.844 53.4955V45.7175H258.826V53.4955C258.826 57.2574 260.64 59.1384 264.266 59.1384C266.469 59.1384 268.333 58.7486 269.858 57.9691V45.7175H274.84V72H269.858V62.4427ZM288.988 72H281.617V45.7175H286.447V66.408H287.209L297.834 45.7175H305.205V72H300.376V51.3604H299.613L288.988 72ZM334.749 72H328.191L318.481 61.121H316.906V72H311.924V45.7175H316.906V56.3424H318.431L327.734 45.7175H333.732L322.447 58.4267L334.749 72Z" fill="white"/>
</g>
<g filter="url(#filter2_b_384_2615)">
<rect x="207" y="94.4365" width="377" height="113" rx="56.5" fill="white" fill-opacity="0.12"/>
<rect x="206.53" y="93.9664" width="377.94" height="113.94" rx="56.9702" stroke="white" stroke-opacity="0.22" stroke-width="0.940343"/>
<path d="M273.881 165.437H266.51V139.154H271.339V159.845H272.102L282.727 139.154H290.098V165.437H285.269V144.797H284.506L273.881 165.437ZM314.457 149.881V139.154H319.439V165.437H314.457V154.456H301.798V165.437H296.816V139.154H301.798V149.881H314.457ZM337.769 165.437H332.787V143.729H323.687V139.154H346.869V143.729H337.769V165.437ZM375.55 152.117C375.55 152.795 375.533 153.32 375.499 153.693H353.792C354.063 156.032 354.978 157.896 356.537 159.285C358.096 160.675 360.079 161.37 362.485 161.37C364.146 161.37 365.62 161.048 366.908 160.404C368.229 159.726 369.229 158.845 369.907 157.76L374.584 158.523C373.567 160.895 371.924 162.725 369.653 164.013C367.416 165.301 364.925 165.945 362.18 165.945C359.57 165.945 357.232 165.369 355.164 164.216C353.097 163.03 351.487 161.403 350.335 159.336C349.183 157.269 348.606 154.93 348.606 152.321C348.606 149.677 349.183 147.322 350.335 145.254C351.487 143.187 353.08 141.577 355.114 140.425C357.147 139.239 359.469 138.646 362.078 138.646C364.654 138.646 366.958 139.239 368.992 140.425C371.059 141.577 372.669 143.187 373.821 145.254C374.974 147.288 375.55 149.576 375.55 152.117ZM362.078 143.068C360.079 143.068 358.35 143.662 356.893 144.848C355.469 146.034 354.52 147.627 354.046 149.626H370.11C369.67 147.661 368.721 146.085 367.263 144.899C365.84 143.678 364.112 143.068 362.078 143.068ZM380.289 175.858V139.154H383.899L385.119 143.526C386.203 142.136 387.576 140.984 389.236 140.069C390.931 139.12 392.897 138.646 395.133 138.646C397.607 138.646 399.81 139.239 401.742 140.425C403.674 141.577 405.182 143.187 406.267 145.254C407.385 147.322 407.944 149.677 407.944 152.321C407.944 154.93 407.385 157.269 406.267 159.336C405.182 161.403 403.674 163.03 401.742 164.216C399.81 165.369 397.607 165.945 395.133 165.945C392.964 165.945 391.05 165.504 389.389 164.623C387.728 163.708 386.356 162.59 385.271 161.268V175.858H380.289ZM394.066 161.471C395.76 161.471 397.269 161.082 398.59 160.302C399.912 159.523 400.929 158.438 401.64 157.048C402.386 155.659 402.759 154.083 402.759 152.321C402.759 150.558 402.386 148.982 401.64 147.593C400.929 146.203 399.912 145.119 398.59 144.339C397.269 143.56 395.76 143.17 394.066 143.17C392.371 143.17 390.846 143.56 389.491 144.339C388.169 145.119 387.135 146.203 386.39 147.593C385.644 148.982 385.271 150.558 385.271 152.321C385.271 154.083 385.644 155.659 386.39 157.048C387.135 158.438 388.169 159.523 389.491 160.302C390.846 161.082 392.371 161.471 394.066 161.471ZM438.645 152.117C438.645 152.795 438.628 153.32 438.594 153.693H416.887C417.158 156.032 418.073 157.896 419.632 159.285C421.191 160.675 423.174 161.37 425.58 161.37C427.241 161.37 428.715 161.048 430.003 160.404C431.325 159.726 432.324 158.845 433.002 157.76L437.679 158.523C436.662 160.895 435.019 162.725 432.748 164.013C430.511 165.301 428.02 165.945 425.275 165.945C422.665 165.945 420.327 165.369 418.26 164.216C416.192 163.03 414.582 161.403 413.43 159.336C412.278 157.269 411.702 154.93 411.702 152.321C411.702 149.677 412.278 147.322 413.43 145.254C414.582 143.187 416.175 141.577 418.209 140.425C420.242 139.239 422.564 138.646 425.173 138.646C427.749 138.646 430.054 139.239 432.087 140.425C434.155 141.577 435.764 143.187 436.917 145.254C438.069 147.288 438.645 149.576 438.645 152.117ZM425.173 143.068C423.174 143.068 421.445 143.662 419.988 144.848C418.565 146.034 417.616 147.627 417.141 149.626H433.206C432.765 147.661 431.816 146.085 430.359 144.899C428.935 143.678 427.207 143.068 425.173 143.068ZM455.483 165.945C452.874 165.945 450.518 165.369 448.417 164.216C446.35 163.03 444.74 161.403 443.588 159.336C442.435 157.269 441.859 154.93 441.859 152.321C441.859 149.677 442.435 147.322 443.588 145.254C444.74 143.187 446.35 141.577 448.417 140.425C450.485 139.239 452.84 138.646 455.483 138.646C458.296 138.646 460.804 139.324 463.007 140.679C465.244 142.035 466.837 143.984 467.786 146.525L463.109 147.288C462.499 146.068 461.533 145.085 460.211 144.339C458.923 143.594 457.449 143.221 455.789 143.221C453.213 143.221 451.112 144.068 449.485 145.763C447.892 147.457 447.095 149.643 447.095 152.321C447.095 154.998 447.892 157.184 449.485 158.879C451.112 160.539 453.213 161.37 455.789 161.37C457.517 161.37 459.042 160.98 460.364 160.2C461.719 159.421 462.702 158.387 463.312 157.099L467.989 157.862C467.04 160.438 465.414 162.437 463.109 163.861C460.838 165.25 458.296 165.945 455.483 165.945ZM484.604 165.945C481.927 165.945 479.538 165.369 477.437 164.216C475.335 163.064 473.692 161.454 472.505 159.387C471.319 157.32 470.726 154.964 470.726 152.321C470.726 149.677 471.319 147.322 472.505 145.254C473.692 143.187 475.335 141.577 477.437 140.425C479.538 139.239 481.927 138.646 484.604 138.646C487.282 138.646 489.671 139.239 491.772 140.425C493.874 141.577 495.517 143.187 496.704 145.254C497.89 147.322 498.483 149.677 498.483 152.321C498.483 154.964 497.89 157.32 496.704 159.387C495.517 161.454 493.874 163.064 491.772 164.216C489.671 165.369 487.282 165.945 484.604 165.945ZM484.604 161.37C487.18 161.37 489.264 160.539 490.857 158.879C492.484 157.218 493.298 155.032 493.298 152.321C493.298 149.609 492.484 147.423 490.857 145.763C489.264 144.068 487.18 143.221 484.604 143.221C482.029 143.221 479.944 144.068 478.352 145.763C476.759 147.423 475.962 149.609 475.962 152.321C475.962 154.998 476.759 157.184 478.352 158.879C479.944 160.539 482.029 161.37 484.604 161.37ZM521.186 151.66C522.542 152.168 523.626 152.999 524.44 154.151C525.287 155.269 525.711 156.591 525.711 158.116C525.711 159.506 525.304 160.76 524.49 161.878C523.711 162.996 522.61 163.878 521.186 164.521C519.763 165.132 518.136 165.437 516.306 165.437H503.749V139.154H515.848C517.577 139.154 519.119 139.459 520.474 140.069C521.83 140.679 522.881 141.509 523.626 142.56C524.406 143.611 524.796 144.814 524.796 146.169C524.796 147.457 524.474 148.576 523.83 149.525C523.22 150.44 522.338 151.151 521.186 151.66ZM508.731 143.373V149.83H515.848C517.001 149.83 517.95 149.542 518.695 148.965C519.441 148.355 519.814 147.576 519.814 146.627C519.814 145.678 519.441 144.899 518.695 144.289C517.95 143.678 517.001 143.373 515.848 143.373H508.731ZM516.306 161.217C517.628 161.217 518.695 160.878 519.509 160.2C520.322 159.523 520.729 158.641 520.729 157.557C520.729 156.472 520.322 155.591 519.509 154.913C518.695 154.236 517.628 153.897 516.306 153.897H508.731V161.217H516.306Z" fill="white"/>
</g>
<defs>
<filter id="filter0_b_384_2615" x="-28.1498" y="-28.1507" width="448.555" height="171.611" filterUnits="userSpaceOnUse" color-interpolation-filters="sRGB">
<feFlood flood-opacity="0" result="BackgroundImageFix"/>
<feGaussianBlur in="BackgroundImageFix" stdDeviation="14.1052"/>
<feComposite in2="SourceAlpha" operator="in" result="effect1_backgroundBlur_384_2615"/>
<feBlend mode="normal" in="SourceGraphic" in2="effect1_backgroundBlur_384_2615" result="shape"/>
</filter>
<filter id="filter1_dd_384_2615" x="55" y="26" width="63.3086" height="65.3091" filterUnits="userSpaceOnUse" color-interpolation-filters="sRGB">
<feFlood flood-opacity="0" result="BackgroundImageFix"/>
<feColorMatrix in="SourceAlpha" type="matrix" values="0 0 0 0 0 0 0 0 0 0 0 0 0 0 0 0 0 0 127 0" result="hardAlpha"/>
<feOffset/>
<feGaussianBlur stdDeviation="1"/>
<feColorMatrix type="matrix" values="0 0 0 0 0 0 0 0 0 0 0 0 0 0 0 0 0 0 0.03 0"/>
<feBlend mode="normal" in2="BackgroundImageFix" result="effect1_dropShadow_384_2615"/>
<feColorMatrix in="SourceAlpha" type="matrix" values="0 0 0 0 0 0 0 0 0 0 0 0 0 0 0 0 0 0 127 0" result="hardAlpha"/>
<feOffset dy="2"/>
<feGaussianBlur stdDeviation="1"/>
<feColorMatrix type="matrix" values="0 0 0 0 0 0 0 0 0 0 0 0 0 0 0 0 0 0 0.06 0"/>
<feBlend mode="normal" in2="effect1_dropShadow_384_2615" result="effect2_dropShadow_384_2615"/>
<feBlend mode="normal" in="SourceGraphic" in2="effect2_dropShadow_384_2615" result="shape"/>
</filter>
<filter id="filter2_b_384_2615" x="177.85" y="65.2858" width="435.3" height="171.301" filterUnits="userSpaceOnUse" color-interpolation-filters="sRGB">
<feFlood flood-opacity="0" result="BackgroundImageFix"/>
<feGaussianBlur in="BackgroundImageFix" stdDeviation="14.1052"/>
<feComposite in2="SourceAlpha" operator="in" result="effect1_backgroundBlur_384_2615"/>
<feBlend mode="normal" in="SourceGraphic" in2="effect1_backgroundBlur_384_2615" result="shape"/>
</filter>
</defs>
</svg>
