<svg width="303" height="47" viewBox="0 0 303 47" fill="none" xmlns="http://www.w3.org/2000/svg">
<path d="M75.6293 35.3687L84.1083 12.1092H79.9183L73.1219 31.2777H72.4621L65.8966 12.1092H61.6406L69.8557 35.3687H75.6293Z" fill="white"/>
<path d="M95.1003 23.3266L104.965 12.1092H100.082L91.8341 21.578H90.8773V12.1092H86.9183V35.3687H90.8773V25.4051H91.8671L100.577 35.3687H105.79L95.1003 23.3266Z" fill="white"/>
<path d="M126.985 23.3266C129.063 22.6667 130.548 20.8851 130.548 18.2788C130.548 14.4847 127.183 11.7793 122.432 11.7793C118.275 11.7793 115.173 13.8578 113.788 17.7839L117.516 18.4107C118.374 16.5962 120.023 15.4084 122.333 15.4084C124.741 15.4084 126.556 16.6951 126.556 18.5757C126.556 20.4892 124.675 21.7759 122.036 21.7759H119.1V25.2401H122.036C125.467 25.2401 126.952 26.6918 126.952 28.5723C126.952 30.7168 125.203 32.0695 122.3 32.0695C119.594 32.0695 118.077 30.9147 117.021 28.7373L113.227 29.3641C114.184 33.1252 117.615 35.6986 122.333 35.6986C127.809 35.6986 131.01 32.6303 131.01 28.7373C131.01 25.834 129.129 24.0524 126.985 23.3266Z" fill="white"/>
<path d="M146.108 24.9762H138.421V18.2128H134.627V35.3687H138.421V28.4403H146.108V35.3687H149.902V18.2128H146.108V24.9762Z" fill="white"/>
<path d="M161.178 17.8828C157.846 17.8828 154.909 19.5984 154.052 22.5677L157.549 23.1616C158.077 22.1058 159.264 21.1161 160.98 21.1161C163.059 21.1161 164.279 22.6007 164.444 24.8442H160.749C155.701 24.8442 153.194 27.0547 153.194 30.2219C153.194 33.4222 155.668 35.6986 159.165 35.6986C161.97 35.6986 163.85 34.082 164.675 32.6633L165.467 35.3687H168.271V25.735C168.271 20.7532 165.566 17.8828 161.178 17.8828ZM160.056 32.4984C158.209 32.4984 157.021 31.5416 157.021 30.057C157.021 28.7373 157.978 27.8135 160.881 27.8135H164.477C164.477 30.6178 162.696 32.4984 160.056 32.4984Z" fill="white"/>
<path d="M188.026 35.3687L180.14 26.4608L187.366 18.2128H182.846L177.105 24.8772H176.181V18.2128H172.387V35.3687H176.181V28.5393H177.105L183.044 35.3687H188.026Z" fill="white"/>
<path d="M197.71 35.6986C203.088 35.6986 206.882 32.0035 206.882 26.7907C206.882 21.578 203.088 17.8828 197.71 17.8828C192.332 17.8828 188.538 21.578 188.538 26.7907C188.538 32.0035 192.332 35.6986 197.71 35.6986ZM197.71 32.2344C194.609 32.2344 192.497 30.024 192.497 26.7907C192.497 23.5575 194.609 21.347 197.71 21.347C200.811 21.347 202.923 23.5575 202.923 26.7907C202.923 30.024 200.811 32.2344 197.71 32.2344Z" fill="white"/>
<path d="M213.809 35.3687V22.6337H214.337L218.626 35.3687H221.826L226.313 22.6337H226.841V35.3687H230.47V18.2128H224.697L220.573 29.991H220.045L216.086 18.2128H210.18V35.3687H213.809Z" fill="white"/>
<path d="M242.714 35.6986C246.31 35.6986 249.709 33.8511 250.995 30.2549L247.432 29.661C246.673 31.1787 244.991 32.2344 242.945 32.2344C239.877 32.2344 237.732 29.991 237.732 26.7907C237.732 23.5905 239.877 21.347 242.945 21.347C244.925 21.347 246.574 22.3698 247.3 23.8544L250.863 23.2606C249.61 19.7304 246.376 17.8828 242.714 17.8828C237.468 17.8828 233.773 21.611 233.773 26.7907C233.773 31.9705 237.468 35.6986 242.714 35.6986Z" fill="white"/>
<path d="M261.404 35.3687V21.6769H267.343V18.2128H251.672V21.6769H257.61V35.3687H261.404Z" fill="white"/>
<path d="M281.79 26.4608C283.274 25.768 284.231 24.6132 284.231 22.8317C284.231 20.1263 281.757 18.2128 278.193 18.2128H269.978V35.3687H278.556C282.251 35.3687 284.825 33.3562 284.825 30.6178C284.825 28.5393 283.472 26.9887 281.79 26.4608ZM278.193 21.347C279.513 21.347 280.437 22.1388 280.437 23.2276C280.437 24.3163 279.513 25.0751 278.193 25.0751H273.772V21.347H278.193ZM273.772 32.2344V28.0444H278.556C280.041 28.0444 281.031 28.9022 281.031 30.1559C281.031 31.4096 280.041 32.2344 278.556 32.2344H273.772Z" fill="white"/>
<path d="M295.273 17.8828C291.941 17.8828 289.005 19.5984 288.147 22.5677L291.644 23.1616C292.172 22.1058 293.359 21.1161 295.075 21.1161C297.154 21.1161 298.374 22.6007 298.539 24.8442H294.844C289.796 24.8442 287.289 27.0547 287.289 30.2219C287.289 33.4222 289.763 35.6986 293.261 35.6986C296.065 35.6986 297.945 34.082 298.77 32.6633L299.562 35.3687H302.366V25.735C302.366 20.7532 299.661 17.8828 295.273 17.8828ZM294.151 32.4984C292.304 32.4984 291.116 31.5416 291.116 30.057C291.116 28.7373 292.073 27.8135 294.976 27.8135H298.572C298.572 30.6178 296.791 32.4984 294.151 32.4984Z" fill="white"/>
<path d="M23.7343 33.5754L26.3592 31.5391C31.5143 27.5074 33.1982 25.905 33.1982 22.597C33.1982 19.6507 30.7775 17.273 27.8306 17.273C26.9668 17.273 26.158 17.4585 25.4043 17.8293C24.933 18.0612 24.4832 18.3657 24.0549 18.7426C23.7217 19.0359 23.4016 19.373 23.0944 19.7541C22.7832 19.3759 22.4605 19.0409 22.1265 18.7491C21.6707 18.351 21.1938 18.0335 20.6956 17.7964C19.9624 17.4475 19.1833 17.273 18.3583 17.273C15.4114 17.273 12.9907 19.6507 12.9907 22.597C12.9907 25.905 14.6746 27.5074 19.8296 31.5391L22.4546 33.5754C22.8308 33.8672 23.3581 33.8672 23.7343 33.5754Z" fill="white"/>
<path fill-rule="evenodd" clip-rule="evenodd" d="M22.1708 0.626953C11.7194 0.626953 6.49366 0.626953 3.24683 3.87378C0 7.12061 0 12.3463 0 22.7977V24.6452C0 35.0966 0 40.3223 3.24683 43.5691C6.49366 46.816 11.7193 46.816 22.1707 46.816H24.0183C34.4697 46.816 39.6954 46.816 42.9422 43.5691C46.189 40.3223 46.189 35.0966 46.189 24.6452V22.7977C46.189 21.1871 46.189 19.7006 46.1771 18.3263C46.1119 10.7827 45.6888 6.62025 42.9423 3.87378C39.8391 0.770642 34.9284 0.633312 25.3755 0.627235C24.9722 0.626978 24.5606 0.626955 24.1405 0.626953H22.1708ZM39.1309 24.0466L44.7985 19.4456C44.8032 20.4929 44.8034 21.6081 44.8034 22.7977V24.6452C44.8034 29.9101 44.8004 33.7194 44.4099 36.6243C44.0247 39.4893 43.2854 41.2663 41.9624 42.5893C40.6393 43.9124 38.8624 44.6516 35.9973 45.0368C33.0924 45.4274 29.2832 45.4303 24.0183 45.4303H22.1707C16.9059 45.4303 13.0966 45.4274 10.1917 45.0368C7.32666 44.6516 5.54969 43.9124 4.22665 42.5893C2.9036 41.2663 2.16436 39.4893 1.77917 36.6243C1.38861 33.7194 1.38567 29.9101 1.38567 24.6452V22.7977C1.38567 21.6087 1.38582 20.494 1.39055 19.4472L7.05818 24.0483C7.30487 26.461 8.19112 28.59 9.81604 30.6004C11.3945 32.5533 13.6923 34.3848 16.1415 36.3002L16.158 36.3131L18.7851 38.3511C21.323 40.3199 24.8659 40.3199 27.4038 38.3511L30.0287 36.3148L30.0453 36.3019L30.0474 36.3002C32.4966 34.3848 34.7944 32.5533 36.3729 30.6004C37.9981 28.5896 38.8844 26.46 39.1309 24.0466ZM18.3583 12.6253C20.1013 12.6253 21.6815 13.0543 23.0839 13.8033C24.4925 13.0511 26.0809 12.6253 27.8306 12.6253C33.2523 12.6253 37.8171 17.0078 37.8171 22.597C37.8171 25.3093 37.0366 27.5749 35.2952 29.7293C33.8343 31.5367 31.6705 33.2717 29.1938 35.2087L29.1794 35.2199L26.5545 37.2563C24.5164 38.8373 21.6725 38.8373 19.6344 37.2563L17.0095 35.2199L16.9951 35.2087C14.5184 33.2717 12.3546 31.5367 10.8937 29.7293C9.15227 27.5749 8.37176 25.3093 8.37176 22.597C8.37176 17.0078 12.9366 12.6253 18.3583 12.6253Z" fill="white"/>
</svg>
