<svg width="60" height="60" viewBox="0 0 60 60" fill="none" xmlns="http://www.w3.org/2000/svg">
<g filter="url(#filter0_dd_537_570)">
<path fill-rule="evenodd" clip-rule="evenodd" d="M34.7495 24.9789C33.7863 27.0847 32.5308 29.2587 30.896 30.893C29.2613 32.5273 27.0867 33.7825 24.9804 34.7455C27.0867 35.7085 29.2613 36.9636 30.896 38.5979C32.5301 40.2315 33.7857 42.4019 34.7495 44.5042C35.7133 42.4019 36.969 40.2315 38.603 38.5979C40.237 36.9643 42.408 35.709 44.5108 34.7455C42.408 33.7819 40.237 32.5266 38.603 30.893C36.9682 29.2587 35.7128 27.0847 34.7495 24.9789ZM32.5291 18.9752C31.4139 22.3814 29.8742 25.925 27.9005 27.8982C25.9267 29.8714 22.3821 31.4107 18.9749 32.5257C18.6276 32.6393 18.2818 32.7485 17.9391 32.8534C17.1738 33.0876 16.4246 33.2998 15.7117 33.4902C15.5065 33.545 15.3043 33.5981 15.1055 33.6493C14.159 33.8931 14.159 35.5978 15.1055 35.8417C15.3043 35.8929 15.5065 35.9459 15.7117 36.0007C16.4246 36.1911 17.1738 36.4034 17.9391 36.6376C18.2818 36.7424 18.6276 36.8516 18.9749 36.9653C22.3821 38.0802 25.9267 39.6195 27.9005 41.5927C29.8738 43.5656 31.4133 47.099 32.5285 50.494C32.6417 50.8385 32.7505 51.1816 32.8549 51.5215C33.0897 52.2857 33.3025 53.0338 33.4934 53.7455C33.5486 53.9514 33.602 54.1542 33.6535 54.3535C33.8981 55.2989 35.601 55.2989 35.8455 54.3535C35.8971 54.1542 35.9504 53.9514 36.0056 53.7455C36.1965 53.0338 36.4093 52.2857 36.6441 51.5215C36.7486 51.1816 36.8574 50.8385 36.9705 50.494C38.0857 47.099 39.6252 43.5656 41.5986 41.5927C43.5719 39.6199 47.1063 38.0808 50.5022 36.9659C50.8468 36.8528 51.19 36.744 51.5299 36.6396C52.2944 36.4048 53.0426 36.1921 53.7545 36.0013C53.9605 35.9461 54.1634 35.8927 54.3627 35.8412C55.3084 35.5967 55.3084 33.8942 54.3627 33.6498C54.1634 33.5982 53.9605 33.5449 53.7545 33.4897C53.0426 33.2988 52.2944 33.0861 51.5299 32.8513C51.19 32.7469 50.8468 32.6382 50.5022 32.525C47.1063 31.4101 43.5719 29.8711 41.5986 27.8982C39.6248 25.925 38.0852 22.3814 36.9699 18.9752C36.8562 18.628 36.747 18.2822 36.6421 17.9397C36.4079 17.1746 36.1956 16.4256 36.0051 15.7129C35.9503 15.5077 35.8972 15.3055 35.846 15.1069C35.6021 14.1606 33.8969 14.1606 33.653 15.1069C33.6018 15.3055 33.5488 15.5077 33.4939 15.7129C33.3035 16.4256 33.0912 17.1746 32.8569 17.9397C32.7521 18.2822 32.6428 18.628 32.5291 18.9752Z" fill="white"/>
<path d="M15.4561 5.00513C15.1098 3.96639 13.6401 3.96639 13.2938 5.00513L11.9143 9.14235C11.4799 10.4453 10.4572 11.4677 9.1539 11.902L5.01559 13.2811C3.97658 13.6274 3.97657 15.0966 5.01559 15.4429L9.14366 16.8185C10.4527 17.2548 11.4783 18.2842 11.9095 19.5946L13.2923 23.7974C13.636 24.8418 15.1138 24.8418 15.4575 23.7974L16.837 19.6049C17.27 18.2887 18.3026 17.2563 19.6192 16.8234L23.8128 15.4443C24.8575 15.1007 24.8575 13.6233 23.8128 13.2797L19.6089 11.8972C18.2981 11.4662 17.2685 10.4408 16.8321 9.13211L15.4561 5.00513Z" fill="white"/>
</g>
<defs>
<filter id="filter0_dd_537_570" x="-2" y="-2" width="63.3086" height="65.3091" filterUnits="userSpaceOnUse" color-interpolation-filters="sRGB">
<feFlood flood-opacity="0" result="BackgroundImageFix"/>
<feColorMatrix in="SourceAlpha" type="matrix" values="0 0 0 0 0 0 0 0 0 0 0 0 0 0 0 0 0 0 127 0" result="hardAlpha"/>
<feOffset/>
<feGaussianBlur stdDeviation="1"/>
<feColorMatrix type="matrix" values="0 0 0 0 0 0 0 0 0 0 0 0 0 0 0 0 0 0 0.03 0"/>
<feBlend mode="normal" in2="BackgroundImageFix" result="effect1_dropShadow_537_570"/>
<feColorMatrix in="SourceAlpha" type="matrix" values="0 0 0 0 0 0 0 0 0 0 0 0 0 0 0 0 0 0 127 0" result="hardAlpha"/>
<feOffset dy="2"/>
<feGaussianBlur stdDeviation="1"/>
<feColorMatrix type="matrix" values="0 0 0 0 0 0 0 0 0 0 0 0 0 0 0 0 0 0 0.06 0"/>
<feBlend mode="normal" in2="effect1_dropShadow_537_570" result="effect2_dropShadow_537_570"/>
<feBlend mode="normal" in="SourceGraphic" in2="effect2_dropShadow_537_570" result="shape"/>
</filter>
</defs>
</svg>
